<?xml version="1.0" encoding="utf-8"?>
<svg viewBox="0 0 200 200" xmlns="http://www.w3.org/2000/svg" xmlns:bx="https://boxy-svg.com" width="200px" height="200px"><defs><bx:export><bx:file format="svg" path="Sans titre.svg" excluded="true"/><bx:file format="svg" path="Sans titre 2.svg"/></bx:export></defs><g style="" transform="matrix(0.749388, 0, 0, 0.797098, 2.246485, 30.56532)"><path style="stroke: rgb(0, 0, 0); fill: rgb(42, 157, 31); paint-order: fill; stroke-dasharray: 5;" d="M 63.527 41.832 L 62.18449999999999 38.62733333333333 C 60.842000000000006 35.422666666666665 58.157000000000004 29.013333333333332 49.366166666666665 25.592333333333332 C 40.57533333333333 22.171333333333333 25.67866666666667 21.73866666666667 18.23033333333333 21.522333333333336 L 10.782 21.306" bx:d="M 63.527 41.832 U 55.472 22.604 U 10.782 21.306 1@f5fb2325"/><path style="stroke: rgb(0, 0, 0); fill: rgb(42, 157, 31); stroke-dasharray: 5;" d="M 163.56 40.013 L 167.0675 36.895 C 170.57500000000002 33.776999999999994 177.59 27.540999999999997 187.24666666666667 24.466333333333335 C 196.90333333333334 21.391666666666666 209.20166666666668 21.478333333333335 215.35083333333333 21.521666666666665 L 221.5 21.565" bx:d="M 163.56 40.013 U 184.605 21.305 U 221.5 21.565 1@84a0366f"/><path style="stroke: rgb(0, 0, 0); fill: rgb(42, 157, 31); stroke-dasharray: 5;" d="M 154.206 133.291 L 156.78816666666668 136.67516666666666 C 159.37033333333332 140.05933333333334 164.53466666666668 146.82766666666666 175.232 150.06016666666667 C 185.92933333333335 153.2926666666667 202.15966666666668 152.98933333333335 210.2748333333333 152.83766666666668 L 218.39 152.686" bx:d="M 154.206 133.291 U 169.699 153.596 U 218.39 152.686 1@9feb32ad"/><path style="stroke: rgb(0, 0, 0); fill: rgb(42, 157, 31); stroke-dasharray: 5;" d="M 64.826 90.159 L 14.42 89.379" bx:d="M 64.826 90.159 U 14.42 89.379 1@3707d3e2"/><path style="stroke: rgb(0, 0, 0); fill: rgb(42, 157, 31); stroke-dasharray: 5;" d="M 167.717 88.34 L 219.421 88.34" bx:d="M 167.717 88.34 U 219.421 88.34 1@e0292a22"/><path style="stroke: rgb(0, 0, 0); fill: rgb(58, 161, 39); stroke-dasharray: 5;" d="M 70.2 133.351 L 68.36566666666667 135.81366666666668 C 66.53133333333334 138.27633333333333 62.86266666666668 143.20166666666668 52.656666666666666 145.5716666666667 C 42.45066666666667 147.9416666666667 25.707333333333334 147.75633333333334 17.33566666666667 147.66366666666667 L 8.964 147.571" bx:d="M 70.2 133.351 U 59.194 148.127 U 8.964 147.571 1@0101ef83"/><g><path fill="#16A34A" d="M 140.774 54.913 C 148.473 62.205 155.275 68.925 158.932 77.23 C 162.589 85.599 163.037 95.552 160.278 104.682 C 157.456 113.811 151.489 122.053 143.597 127.188 C 135.642 132.324 125.889 134.352 116.907 133.275 C 107.925 132.197 99.713 127.95 91.18 123.004 C 82.646 118.059 73.792 112.416 70.969 104.682 C 68.21 96.884 71.547 86.993 76.038 78.815 C 80.529 70.573 86.239 64.043 93.104 56.498 C 99.969 48.89 108.053 40.332 116.33 39.951 C 124.606 39.634 133.14 47.623 140.774 54.913 Z" style=""/></g></g></svg>